<?xml version="1.0" standalone="no"?>
<!DOCTYPE svg PUBLIC "-//W3C//DTD SVG 20010904//EN"
 "http://www.w3.org/TR/2001/REC-SVG-20010904/DTD/svg10.dtd">
<svg version="1.0" xmlns="http://www.w3.org/2000/svg"
 width="386.000000pt" height="517.000000pt" viewBox="0 0 386.000000 517.000000"
 preserveAspectRatio="xMidYMid meet">

<g transform="translate(0.000000,517.000000) scale(0.100000,-0.100000)"
fill="#000000" stroke="none">
<path d="M480 5154 c-203 -43 -369 -192 -442 -397 -19 -53 -23 -83 -22 -197 0
-127 2 -140 30 -210 77 -192 220 -322 409 -370 141 -36 269 -23 402 41 147 70
250 188 307 349 27 75 30 98 30 195 0 93 -4 122 -27 188 -103 297 -391 465
-687 401z"/>
</g>
</svg>
